<svg xmlns="http://www.w3.org/2000/svg" viewBox="0 0 512 512">
  <defs>
    <linearGradient id="bg" x1="0" y1="0" x2="1" y2="1">
      <stop offset="0%" stop-color="#ec4899"/>
      <stop offset="100%" stop-color="#6366f1"/>
    </linearGradient>
  </defs>
  <rect width="512" height="512" rx="96" fill="url(#bg)"/>
  <!-- 지도 핀 -->
  <g transform="translate(256 220)">
    <path d="M0 -120 C 66 -120 120 -66 120 0 C 120 90 0 220 0 220 C 0 220 -120 90 -120 0 C -120 -66 -66 -120 0 -120 Z" fill="#fff"/>
    <circle cx="0" cy="0" r="52" fill="#ec4899"/>
    <!-- 드론 심볼 -->
    <g fill="#fff">
      <circle cx="-24" cy="-16" r="10"/>
      <circle cx="24" cy="-16" r="10"/>
      <circle cx="-24" cy="16" r="10"/>
      <circle cx="24" cy="16" r="10"/>
      <rect x="-6" y="-6" width="12" height="12" rx="2"/>
      <rect x="-22" y="-2" width="44" height="4" rx="2"/>
      <rect x="-2" y="-22" width="4" height="44" rx="2"/>
    </g>
  </g>
</svg>
